<svg xmlns="http://www.w3.org/2000/svg" viewBox="0 0 40 40" width="40" height="40">
  <!-- Outer leaf shape - Brown -->
  <path d="M20 2 C10 8, 4 18, 4 28 C4 34, 10 38, 20 38 C30 38, 36 34, 36 28 C36 18, 30 8, 20 2Z" fill="#8B4513"/>
  <!-- Inner leaf shape - Rust -->
  <path d="M20 6 C13 11, 8 19, 8 27 C8 32, 12 35, 20 35 C28 35, 32 32, 32 27 C32 19, 27 11, 20 6Z" fill="#b85c3c"/>
  <!-- Central vein - Gold -->
  <line x1="20" y1="8" x2="20" y2="33" stroke="#d4af37" stroke-width="1.5" stroke-linecap="round"/>
  <!-- Left veins - Gold -->
  <line x1="20" y1="14" x2="12" y2="22" stroke="#d4af37" stroke-width="1" stroke-linecap="round"/>
  <line x1="20" y1="20" x2="11" y2="27" stroke="#d4af37" stroke-width="1" stroke-linecap="round"/>
  <line x1="20" y1="26" x2="13" y2="31" stroke="#d4af37" stroke-width="1" stroke-linecap="round"/>
  <!-- Right veins - Gold -->
  <line x1="20" y1="14" x2="28" y2="22" stroke="#d4af37" stroke-width="1" stroke-linecap="round"/>
  <line x1="20" y1="20" x2="29" y2="27" stroke="#d4af37" stroke-width="1" stroke-linecap="round"/>
  <line x1="20" y1="26" x2="27" y2="31" stroke="#d4af37" stroke-width="1" stroke-linecap="round"/>
  <!-- Top accent dot - Gold -->
  <circle cx="20" cy="5" r="1.5" fill="#d4af37"/>
</svg>
